<svg height="539" viewBox="0 0 585.75 126.25" width="2500" xmlns="http://www.w3.org/2000/svg"><path d="m192.27 26.02c-33.83 0-58.28 27.99-58.28 58.43 0 26.28 18.37 41.79 42.7 41.79s39.43-15.05 44.18-33.58c-6.54 4.67-17.76 9.94-30.43 9.94-10.83 0-23.83-4.61-25.09-18.87 27.21-3.52 49.39-12.19 61.45-21.28.19-1.51.39-3.72.39-6.55 0-15.32-9.64-29.88-34.9-29.88zm3.99 38.57h-29.65c2.66-13.61 12.35-23.64 21.86-23.64 6.46 0 9.5 3.4 9.5 11.73 0 3.78-.57 7.75-1.71 11.91zm345.22-38.57c-34.78 0-59.48 26.85-59.48 61.27 0 25.15 19.76 38.95 44.28 38.95 34.78 0 59.47-26.85 59.47-61.27 0-25.15-19.76-38.95-44.28-38.95zm-14.06 84.9c-7.98 0-12.35-6.43-12.35-18.53 0-24.02 9.69-51.06 25.27-51.06 7.98 0 12.36 6.43 12.36 18.53 0 24.02-9.89 51.06-25.28 51.06zm-46.76-60.51c0 3.02-.3 6.4-1.02 10.02l-12.47 63.91h-30.99l11-56.35c.57-2.83.8-5.29.8-7.56 0-8.89-4.74-12.86-13.3-12.86-3.42 0-7.66 1.1-10.38 2.27l-14.53 74.5h-30.98l18.83-96.44h30.98l-3.42 17.4c5.03-8 16.23-19.29 30.81-19.29 13.49 0 24.69 8.13 24.69 24.39h-.01zm-99.13 6.28c0-17.4-15.23-30.67-36.56-30.67-26.53 0-40.39 17.37-44.47 33.58 8.32-6.03 20.17-9.94 30.43-9.94 9.57 0 19.05 3.1 19.05 12.67 0 .94 0 2.08-.19 3.59-24.44.98-59.67 13.99-59.67 40.85 0 11.15 8.11 19.48 20.65 19.48s24.19-8.51 31.04-19.29l-3.39 17.4h30.97l11.31-58.02c.57-3.4.83-6.62.83-9.64zm-38.83 45.73c-3.8 1.7-8.68 2.83-12.29 2.83-7.8 0-11.62-4.27-11.62-9.94 0-11.98 14.26-19.57 28.04-13.98l-4.12 21.08zm-69.65.18c4.13 0 8.14-1.17 13.36-5.08-4.78 16.22-18.16 28.72-32.51 28.72-17.61 0-23.17-14.73-19.5-33.58l9.33-47.73h-12.66l3.32-17.02h12.7l3.49-18.17 31.9-4.46-4.46 22.64h26.56c-1.99 9.9-8.18 17.02-20.87 17.02h-9.02l-9.12 46.72c-1.41 7.16 2.47 10.95 7.47 10.95zm-143.99-26.17c0 25.9-35.04 47.93-93.54 47.93h-35.52l24.27-124.36h77.98c21.99 0 33.76 4.51 33.76 18.16 0 16.34-26.23 34.34-67.5 41.77l22.51-37.28-34.4-.09-14.97 45.91 23.72-3.32-30.15 49.95 71.08-58.79c13.85 0 22.76 8 22.76 20.11z" fill="#ff3c00"/></svg>