<?xml version="1.0" encoding="UTF-8" standalone="no"?>
<svg
   xmlns:dc="http://purl.org/dc/elements/1.1/"
   xmlns:cc="http://creativecommons.org/ns#"
   xmlns:rdf="http://www.w3.org/1999/02/22-rdf-syntax-ns#"
   xmlns:svg="http://www.w3.org/2000/svg"
   xmlns="http://www.w3.org/2000/svg"
   xmlns:sodipodi="http://sodipodi.sourceforge.net/DTD/sodipodi-0.dtd"
   xmlns:inkscape="http://www.inkscape.org/namespaces/inkscape"
   style="overflow:visible"
   version="1.1"
   x="0px"
   y="0px"
   viewBox="0 0 4095.9999 4096.0001"
   xml:space="preserve"
   id="svg32"
   sodipodi:docname="corona-logo.svg"
   width="4096"
   height="4096"
   inkscape:export-filename="G:\Users\suitedoalex\sites\corona-logo-0.png"
   inkscape:export-xdpi="96"
   inkscape:export-ydpi="96"
   inkscape:version="0.92.2 (5c3e80d, 2017-08-06)"><metadata
     id="metadata38"><rdf:RDF><cc:Work
         rdf:about=""><dc:format>image/svg+xml</dc:format><dc:type
           rdf:resource="http://purl.org/dc/dcmitype/StillImage" /><dc:title></dc:title></cc:Work></rdf:RDF></metadata><defs
     id="defs36" /><sodipodi:namedview
     pagecolor="#ffffff"
     bordercolor="#666666"
     borderopacity="1"
     objecttolerance="10"
     gridtolerance="10"
     guidetolerance="10"
     inkscape:pageopacity="0"
     inkscape:pageshadow="2"
     inkscape:window-width="1600"
     inkscape:window-height="837"
     id="namedview34"
     showgrid="false"
     inkscape:zoom="0.058090727"
     inkscape:cx="2096.7599"
     inkscape:cy="2450.9458"
     inkscape:window-x="-8"
     inkscape:window-y="-8"
     inkscape:window-maximized="1"
     inkscape:current-layer="svg32" /><style
     type="text/css"
     id="style2"> .st0{fill:#FFC627;} .st1{fill:#0D2240;} </style><g
     class="crown"
     style="opacity:1"
     id="g12"
     transform="matrix(13.820596,0,0,13.820596,291.40225,1092.3058)"
     inkscape:export-filename="G:\Users\suitedoalex\sites\corona-logo-4.png"
     inkscape:export-xdpi="10.930221"
     inkscape:export-ydpi="10.930221"><path
       class="st0"
       d="m 184.6,26.1 c -0.8,-0.2 -1.4,-0.2 -1.8,0.1 -2,1.5 -3.7,2.4 -5.1,2.5 -1.4,0.1 -2.4,0.6 -3.1,1.5 l -1.4,1.3 c -0.1,0.2 -0.7,0.6 -2.5,0.8 -0.3,0.2 -1.4,0.8 -0.9,1.4 0.6,0.8 1.2,1.7 1.6,2.7 0.5,2 0.1,4 -1.7,6 -0.7,0.8 -1.6,1 -2.8,0.9 -0.6,-0.1 -1.3,-0.5 -1.3,-1.2 0.1,-0.7 0.3,-1.3 1,-1.7 1.2,-1.5 1.2,-2.8 -0.1,-3.9 -0.9,-0.5 -1.9,-0.5 -2.8,0 -1.8,0.8 -2.1,2.4 -0.9,3.9 0,0.5 -0.1,1 -0.3,1.7 -0.5,0.9 -1.3,1.2 -2.3,1 -1.7,-0.9 -2.5,-2.5 -2.3,-5.3 0.8,-1.3 1.7,-2.4 2.7,-3.3 -1,-1.8 -2.5,-3.2 -4.4,-4.2 -1.8,0.9 -3.3,2.3 -4.4,4.2 0.9,1 1.7,2.1 2.2,3.3 0.2,1.6 0.1,3.2 -1.2,4.7 -1.2,0.8 -2.3,1.3 -3.5,0.6 -0.8,-0.8 -0.8,-1.7 -0.3,-2.8 0.8,-1.3 0.7,-2.5 -0.5,-3.6 -0.9,-0.7 -2.1,-0.6 -2.9,0 -1.2,0.9 -1,2.1 -0.1,3.6 0.1,0.6 0,1.2 -0.1,1.5 -0.9,2 -2.3,1.7 -3.9,1 -2.9,-2.8 -2.8,-5.7 0.6,-8.4 0.7,-0.9 0.3,-2 -0.9,-2.2 -2.4,-0.7 -4.5,-1.7 -5.9,-3.7 -1.4,-2.9 -3.2,-2.9 -4.6,0 -1.4,1.8 -3.6,3 -5.9,3.7 -1.3,0.2 -1.6,1.3 -1,2.1 3.5,2.9 3.5,5.7 0.7,8.5 -1.6,0.7 -3,0.8 -3.9,-1 -0.2,-0.5 -0.2,-0.9 -0.1,-1.6 0.9,-1.4 1,-2.7 -0.1,-3.5 -0.9,-0.6 -2,-0.7 -3,0 -1.2,0.9 -1.2,2.3 -0.3,3.6 0.3,0.9 0.3,1.8 -0.3,2.7 -1.3,0.7 -2.3,0.3 -3.5,-0.5 -1.3,-1.6 -1.4,-3.1 -1.2,-4.7 0.5,-1.4 1.3,-2.4 2.1,-3.5 -0.9,-1.7 -2.4,-3.1 -4.4,-4.2 -1.7,1 -3.2,2.4 -4.4,4.2 1,1 2,2.1 2.7,3.5 0.3,2.7 -0.5,4.4 -2.2,5.2 -1.2,0.2 -2,0 -2.4,-1 -0.1,-0.6 -0.2,-1.2 -0.2,-1.6 1.2,-1.5 0.8,-3.1 -0.9,-3.9 -0.9,-0.5 -1.8,-0.5 -2.9,0 -1.2,1.2 -1.3,2.4 -0.1,3.9 0.7,0.5 1,1 1,1.6 0.1,0.8 -0.6,1.2 -1.3,1.3 -1.2,0.1 -2,-0.2 -2.7,-0.9 -2,-2 -2.3,-4 -1.9,-6.1 0.5,-0.9 1,-1.7 1.7,-2.5 0.5,-0.6 -0.6,-1.3 -1,-1.4 -1.8,-0.3 -2.4,-0.6 -2.4,-0.8 l -1.4,-1.4 c -0.8,-0.8 -1.8,-1.3 -3.1,-1.4 -1.4,-0.1 -3.2,-1 -5.2,-2.5 -0.5,-0.3 -1,-0.3 -1.7,-0.1 -0.6,0.6 -0.7,1.2 -0.5,1.7 7.2,6.4 9.6,13.7 10.2,17.6 h 84.1 c 0.6,-3.8 3,-11.2 10.1,-17.4 -0.1,-0.8 -0.2,-1.4 -0.7,-2"
       id="path4"
       inkscape:connector-curvature="0"
       style="fill:#ffc627" /><path
       class="st0"
       d="m 87.1,24.9 c 2.2,0.6 4.4,1.3 6.2,2.4 1.3,0.3 2.5,0 3.7,-0.7 5.1,-4 10.9,-7.4 17.7,-9.5 1,-0.3 1.6,0 1.3,1 -2.7,2.1 -4.6,4.7 -5.8,8.2 0,1 0.7,1.5 2.2,1.4 1.2,-0.3 2.1,-0.2 2.8,0.2 1,0.2 1.8,-0.1 2.5,-1.7 0.7,-4.5 3.5,-7.6 7.5,-9.8 1.8,-0.2 2.7,0.6 2.4,2.3 -1.5,1.6 -2.7,3.3 -3.1,5.2 0.1,1.7 1,2.3 2.5,1.8 0.9,0 1.6,-0.8 2.2,-2.3 1.5,-2.8 5.4,-2.8 6.9,0 0.6,1.5 1.3,2.3 2.1,2.3 1.6,0.5 2.5,-0.1 2.7,-1.8 -0.5,-1.9 -1.6,-3.6 -3.1,-5.2 -0.2,-1.7 0.6,-2.5 2.4,-2.3 4,2.2 6.8,5.3 7.5,9.8 0.6,1.6 1.5,2 2.4,1.7 0.8,-0.5 1.7,-0.6 2.9,-0.2 1.5,0.1 2.2,-0.3 2.2,-1.4 -1.2,-3.5 -3.1,-6.1 -5.8,-8.2 -0.3,-1 0.2,-1.4 1.3,-1 6.8,2.1 12.6,5.4 17.7,9.5 1.2,0.7 2.4,1 3.7,0.7 1.8,-1.2 3.9,-1.8 6.2,-2.4 1.4,-0.2 1.9,-1.3 1.5,-2.9 -1,-1.5 -2.5,-2.4 -4.6,-2.7 -0.8,0.1 -1.5,-0.1 -2.1,-0.7 -1.3,-2.2 -3.6,-3 -6.7,-2.5 -1.5,-1.7 -3.6,-2.1 -5.8,-2 -2,-2.1 -4.2,-2.3 -6.5,-1.9 -2.5,-1.6 -4.9,-2.2 -6.8,-1.2 -3.2,-1.3 -6,-0.8 -8.3,0.7 -0.8,-1.7 -2,-3 -3.8,-3.7 V 6.1 h 3 v -3 h -3 V 0 h -5.1 v 3.1 h -3 v 3 h 3 v 2.1 c -1.9,0.7 -3.1,2 -3.8,3.7 -2.4,-1.5 -5.1,-2 -8.3,-0.7 -2.1,-1 -4.4,-0.5 -6.8,1.2 -2.3,-0.5 -4.5,-0.2 -6.5,1.9 -2.3,-0.1 -4.3,0.2 -5.8,2 -3.1,-0.5 -5.4,0.3 -6.7,2.5 -0.6,0.6 -1.3,0.8 -2.1,0.7 -2.1,0.2 -3.6,1.2 -4.6,2.7 -0.3,1.5 0.2,2.5 1.6,2.7 M 132.8,9.8 c 1.6,0 2.9,1.6 2.9,3.7 0,2.1 -1.3,3.8 -2.9,3.8 -1.6,0 -3,-1.7 -3,-3.8 0,-2.1 1.4,-3.7 3,-3.7"
       id="path6"
       inkscape:connector-curvature="0"
       style="fill:#ffc627" /><path
       class="st0"
       d="m 90.8,59 h 84.1 V 51.1 H 90.8 Z m 74.6,-6.1 c 1.3,0 2.3,1 2.3,2.3 0,1.3 -1,2.3 -2.3,2.3 -1.3,0 -2.3,-1 -2.3,-2.3 0,-1.3 1,-2.3 2.3,-2.3 m -16.1,0 c 1.3,0 2.3,1 2.3,2.3 0,1.3 -1,2.3 -2.3,2.3 -1.3,0 -2.3,-1 -2.3,-2.3 0,-1.3 1.1,-2.3 2.3,-2.3 m -16.5,0 c 1.3,0 2.3,1 2.3,2.3 0,1.3 -1,2.3 -2.3,2.3 -1.3,0 -2.3,-1 -2.3,-2.3 0,-1.3 1,-2.3 2.3,-2.3 m -16.5,0 c 1.3,0 2.3,1 2.3,2.3 0,1.3 -1,2.3 -2.3,2.3 -1.3,0 -2.3,-1 -2.3,-2.3 0,-1.3 1,-2.3 2.3,-2.3 m -16.2,0 c 1.3,0 2.3,1 2.3,2.3 0,1.3 -1,2.3 -2.3,2.3 -1.3,0 -2.3,-1 -2.3,-2.3 0,-1.3 1,-2.3 2.3,-2.3"
       id="path8"
       inkscape:connector-curvature="0"
       style="fill:#ffc627" /><rect
       x="90.800003"
       y="47.200001"
       class="st0"
       width="84.099998"
       height="2.0999999"
       id="rect10"
       style="fill:#ffc627" /></g><g
     class="label"
     style="opacity:1"
     id="g30"
     transform="matrix(13.820596,0,0,13.820596,291.40225,1092.3058)"
     inkscape:export-filename="G:\Users\suitedoalex\sites\corona-logo-4.png"
     inkscape:export-xdpi="10.930221"
     inkscape:export-ydpi="10.930221"><path
       class="st1"
       d="m 77.3,66.2 c 0,0 -11.2,-0.4 -15.8,-10.5 0,0 -10.5,11.8 -26.8,16 l 1.1,2.9 v 37.6 l -3.1,3.1 c 0,0 -12.4,-8 -13.4,-20 -0.9,-10.9 0.7,-19.1 12.9,-29.6 0,0 4,-3.6 10.2,-5.8 V 58.6 C 22.7,58.5 0,76.3 0,97 c 0,20.5 15.6,32.7 36.1,32.7 0,0 13.1,0.1 22.7,-5.2 v 5.1 c 0,0.4 -0.8,0.3 -0.8,0.3 -2.8,0 -5.1,1.9 -5.1,4.2 0,2.3 2.3,4.2 5.1,4.2 2.8,0 5.1,-1.9 5.1,-4.2 v -11.6 c 0,0 2.7,-2.1 3.6,-2.8 0.9,-0.7 0.2,-2.2 -0.9,-1.8 -1.1,0.4 -2.7,1.1 -2.7,1.1 V 70.9 c 0,0 9.5,0.9 14.2,-4.7 M 58.8,120 c -16.3,1.8 -20.7,-1.8 -20.7,-1.8 L 51.5,106.8 V 67.6 c 0,-1.8 7.3,2.7 7.3,2.7 z"
       id="path14"
       inkscape:connector-curvature="0"
       style="fill:#0d2240" /><path
       class="st1"
       d="m 98.3,83.4 c 0,-1.4 1.8,-2.9 1.8,-2.9 -6.7,-0.7 -17.4,-5.6 -17.4,-5.6 -6,5.1 -15.6,5.6 -15.6,5.6 -0.2,1.1 1.5,3.1 1.5,3.1 v 24.1 c 0,0 -0.5,0.3 -2.2,2.4 -0.5,0.7 -0.9,1.3 -0.9,1.3 13.4,1.5 18.8,8.4 18.8,8.4 6,-6.7 16.1,-8.2 16.1,-8.2 -1.6,-0.7 -2.2,-3 -2.2,-3.4 V 83.4 Z M 87.4,110 c -7.2,-1.4 -8.7,-3.1 -8.7,-3.1 V 82 c 0,-0.5 8.7,3.1 8.7,3.1 z"
       id="path16"
       inkscape:connector-curvature="0"
       style="fill:#0d2240" /><path
       class="st1"
       d="m 165.5,83.4 c 0,-1.4 1.8,-2.9 1.8,-2.9 -6.7,-0.7 -17.4,-5.6 -17.4,-5.6 -6,5.1 -15.6,5.6 -15.6,5.6 -0.2,1.1 1.5,3.1 1.5,3.1 v 24.1 c 0,0 -0.5,0.3 -2.2,2.4 -0.5,0.7 -0.9,1.3 -0.9,1.3 13.4,1.5 18.8,8.4 18.8,8.4 6,-6.7 16.1,-8.2 16.1,-8.2 -1.6,-0.7 -2.2,-3 -2.2,-3.4 V 83.4 Z M 154.6,110 c -7.2,-1.4 -8.7,-3.1 -8.7,-3.1 V 82 c 0,-0.5 8.7,3.1 8.7,3.1 z"
       id="path18"
       inkscape:connector-curvature="0"
       style="fill:#0d2240" /><path
       class="st1"
       d="m 243.6,110.8 c -2.7,-0.4 -3.6,-2.7 -3.6,-3.4 0,-0.7 0,-24.6 0,-24.6 v -2.7 c -7.8,-2.5 -15.4,-5.3 -15.4,-5.3 -7.2,4.3 -15,5.6 -15,5.6 -0.2,1.1 1.5,3.1 1.5,3.1 v 25.3 c 0,0 -0.3,0.4 -1,1.3 -0.3,0.4 -0.8,1 -1,1.2 7.8,0.9 16.3,8.4 16.3,8.4 l 6.2,-6.7 7,6.7 8.4,-8.4 c 0,0.1 -0.7,0 -3.4,-0.5 z M 229.1,110 c -3.3,-2.5 -7.8,-4.2 -7.8,-4.2 V 81.9 c 0.4,0.5 7.8,3.1 7.8,3.1 z"
       id="path20"
       inkscape:connector-curvature="0"
       style="fill:#0d2240" /><path
       class="st1"
       d="m 121.3,111.4 c -7.1,4.1 -9,8.4 -9,8.4 0,0 -1.9,-4.3 -9,-8.4 h 3.3 c 0,0 0,-25.6 0,-26.2 0,-1.4 -1.4,-4.5 -4.6,-4.7 l 9.1,-5.6 c 0,0 5.8,3.4 6.7,4.9 0,0 -1.1,0.9 6.3,-4 l 1.3,-0.9 c 0,0 4.5,5.1 8.1,5.9 -0.9,3.3 -4.2,7.3 -13.3,2.3 0,0 -2.2,-0.5 -2.2,1 v 27.4 h 3.3 z"
       id="path22"
       inkscape:connector-curvature="0"
       style="fill:#0d2240" /><path
       class="st1"
       d="m 205.2,80.5 c -3.6,-1.4 -10.3,-5.6 -10.3,-5.6 l -1.3,0.9 c -7.4,4.9 -9.1,4.2 -9.1,4.2 -0.9,-1.5 -6.7,-4.9 -6.7,-4.9 l -8.8,5.4 c 3.3,0.2 4.6,3.3 4.6,4.7 0,0.6 0,26.2 0,26.2 h -3.3 c 7.1,4.1 9,8.4 9,8.4 0,0 1.9,-4.3 9,-8.4 H 185 V 85 l 4.7,-2.7 3.6,2.7 v 26.4 H 190 c 7.1,4.1 8.6,8.4 8.6,8.4 0,0 1.9,-4.3 9,-8.4 h -3.3 V 84 c 0,-0.1 1.8,-3.1 0.9,-3.5 z"
       id="path24"
       inkscape:connector-curvature="0"
       style="fill:#0d2240" /><path
       class="st1"
       d="m 250.5,121.1 c 0,0 1.1,-0.3 1.1,-1.3 0,-0.7 -0.5,-1.3 -1.7,-1.3 h -2 v 4.6 h 0.8 v -1.9 h 0.9 c 0,0 0.8,0.9 1.3,1.9 h 1.1 c -0.1,0 -0.8,-1.4 -1.5,-2 m -0.8,-0.6 c -0.4,0 -1.1,0 -1.1,0 v -1.3 h 1.1 c 0.4,0 0.9,0.1 0.9,0.6 0,0.5 -0.5,0.7 -0.9,0.7"
       id="path26"
       inkscape:connector-curvature="0"
       style="fill:#0d2240" /><path
       class="st1"
       d="m 245.4,120.8 c 0,2.4 2,4.4 4.4,4.4 2.4,0 4.4,-2 4.4,-4.4 0,-2.4 -2,-4.4 -4.4,-4.4 -2.5,0 -4.4,2 -4.4,4.4 m 0.8,0 c 0,-2 1.6,-3.5 3.5,-3.5 2,0 3.5,1.6 3.5,3.5 0,2 -1.6,3.5 -3.5,3.5 -1.9,0 -3.5,-1.6 -3.5,-3.5"
       id="path28"
       inkscape:connector-curvature="0"
       style="fill:#0d2240" /></g></svg>