<?xml version="1.0" encoding="UTF-8" standalone="no"?>
<!-- Created with Inkscape (http://www.inkscape.org/) -->

<svg
   width="500"
   height="455.57819"
   viewBox="0 0 132.29 120.53688"
   version="1.1"
   id="svg5"
   xmlns="http://www.w3.org/2000/svg"
   xmlns:svg="http://www.w3.org/2000/svg">
  <defs
     id="defs2" />
  <g
     id="layer1">
    <g
       id="g15538"
       transform="matrix(1.0125826,0,0,1.0125826,265.20796,146.64755)">
      <path
         style="opacity:1;fill:#df202f;fill-opacity:1;stroke-width:0.055134"
         d="m -259.73692,-26.290498 c -0.0784,-0.07836 -0.0652,-0.257035 -0.058,-0.569399 0.006,-0.264936 0.0621,-0.353181 0.44992,-0.871856 0.22951,-0.306923 0.46895,-0.583824 0.51236,-0.687722 0.0669,-0.160101 0.14708,-1.232945 0.14708,-6.486133 0,-7.187276 0.11898,-6.421278 -0.786,-6.372115 -1.29891,0.07056 -1.36352,-0.06812 -1.81692,-0.401325 -0.96945,-0.809891 -0.73761,-2.27465 0.20342,-2.871431 0.4218,-0.267498 0.76355,-0.335412 1.37952,-0.329119 2.24324,0.02293 4.57093,1.043276 6.15053,2.69613 1.58742,1.661031 2.46229,3.427128 4.29776,8.6759 0.2492,0.712607 0.50112,1.432106 0.55984,1.598886 0.13644,0.387545 0.25364,0.53977 0.45994,0.59738 0.2499,0.06979 0.49887,-0.02025 0.62415,-0.225715 0.0923,-0.151367 0.67784,-1.744918 1.74712,-4.754821 0.12927,-0.363885 0.46243,-1.294271 0.74035,-2.067526 0.27794,-0.773254 0.57662,-1.6044 0.66376,-1.846989 0.0871,-0.24259 0.28601,-0.800822 0.44195,-1.240515 0.29743,-0.838618 0.43429,-1.054289 0.75654,-1.192174 0.14401,-0.06161 0.79432,-0.05551 3.45291,-0.07591 l 3.21104,-0.02464 c 0.11076,-8.19e-4 0.20337,0.08821 0.20629,0.198938 0.003,0.10142 0.005,0.226315 0.002,0.34442 -0.0109,0.459677 -0.0611,0.405241 -0.44352,0.907323 -0.68607,0.900849 -0.62139,0.09995 -0.62278,6.740638 -7.5e-4,4.91149 0.0107,5.802159 0.0791,5.995905 0.2524,0.610181 0.96032,1.037237 0.96706,1.75285 0,0.453678 0.0585,0.556228 -0.54539,0.567541 -1.17534,0.02201 -3.08137,0.01491 -4.25686,5.63e-4 -0.65043,-0.0079 -0.61016,-0.10321 -0.61016,-0.550728 0,-0.367025 0.12069,-0.488684 0.5336,-1.017477 0.6335,-0.811282 0.5275,-0.265611 0.52889,-5.475405 -0.0558,-4.833446 0.0242,-4.741543 -0.24817,-4.931566 -0.0569,-0.03973 -0.24081,-0.06264 -0.48684,-0.06264 -0.40645,0 -0.50035,-0.02239 -0.61653,0.102973 -0.0704,0.07589 -0.19242,0.317784 -0.27131,0.537557 -0.0789,0.219773 -0.40662,1.143895 -0.72827,2.053607 -0.32164,0.909711 -0.79232,2.237064 -1.04594,2.949671 -0.25362,0.712608 -0.68572,1.928312 -0.96021,2.701567 -0.27449,0.773255 -0.545,1.467944 -0.60114,1.543753 -0.19057,0.257377 -0.54878,0.485963 -0.86408,0.551419 -0.19852,0.04121 -0.78443,0.05718 -1.66895,0.04549 -1.52698,-0.02017 -1.66802,-0.05085 -2.04128,-0.443924 -0.20668,-0.217656 -0.29747,-0.454385 -1.63915,-4.274263 -0.16774,-0.477599 -0.39067,-1.104059 -0.49539,-1.392134 -0.10472,-0.288075 -0.31687,-0.883523 -0.47145,-1.323218 -0.7789,-2.215513 -1.02135,-2.847939 -1.13609,-2.963455 -0.10722,-0.107944 -0.18023,-0.09982 -0.56229,-0.09982 -0.531,0 -0.59122,-0.0039 -0.71202,0.216772 -0.0866,0.158143 -0.0957,0.541778 -0.10981,4.608206 -0.0106,3.06532 0.003,4.52583 0.0452,4.727435 0.0475,0.228467 0.15578,0.41979 0.49957,0.882226 0.24145,0.32477 0.47624,0.642274 0.49212,0.705564 0.011,0.04412 0.0739,0.463549 0.0496,0.71282 -0.011,0.113062 -0.19197,0.182727 -0.31492,0.181385 l -0.0265,-2.92e-4 -2.37437,-0.0085 c -2.24288,0 -2.44127,0.02979 -2.68714,-0.03609 0,0 0,0 -10e-6,0 z"
         id="path14916" />
      <path
         style="opacity:1;fill:#df202f;fill-opacity:1;stroke-width:0.26458"
         d="m -250.89259,-55.617059 c -0.37605,-0.376014 -0.31288,-1.233471 -0.27852,-2.73246 0.0291,-1.271391 0.2979,-1.694863 2.15909,-4.183907 1.10134,-1.47288 2.25041,-2.801683 2.45874,-3.300273 0.32101,-0.768306 0.70579,-5.916723 0.70579,-31.125992 0,-34.490669 0.57102,-30.814759 -3.77188,-30.578829 -6.23327,0.33863 -6.54328,-0.32689 -8.71913,-1.9259 -4.65226,-3.88655 -3.53964,-10.91571 0.97621,-13.77957 2.02416,-1.28369 3.66415,-1.6096 6.62007,-1.5794 10.76502,0.10999 21.93524,5.00653 29.51552,12.93833 7.61778,7.97104 11.81613,16.44628 20.62429,41.634355 1.19586,3.419696 2.40482,6.872465 2.68659,7.67282 0.65474,1.85977 1.21718,2.59027 2.20721,2.866732 1.19923,0.334884 2.39395,-0.09717 2.99518,-1.083166 0.44294,-0.726389 3.25284,-8.373606 8.38416,-22.817681 0.62035,-1.74623 2.21915,-6.21102 3.55288,-9.92175 1.33373,-3.71073 2.76708,-7.69928 3.18521,-8.86343 0.41814,-1.16415 1.37253,-3.84302 2.12089,-5.95305 1.42731,-4.0244 2.0841,-5.05937 3.63055,-5.72106 0.69106,-0.29568 3.81183,-0.26637 16.57,-0.36428 l 15.40932,-0.11825 c 0.53151,-0.004 0.97588,0.42331 0.98993,0.95467 0.0129,0.4867 0.0227,1.08605 0.009,1.65282 -0.0526,2.20592 -0.29346,1.94469 -2.12839,4.35411 -3.2923,4.32304 -2.98192,0.47962 -2.98861,32.347324 -0.005,23.569506 0.0514,27.843698 0.37945,28.773454 1.21122,2.928166 4.60838,4.977547 4.64077,8.411662 0,2.177138 0.28114,2.669262 -2.61726,2.72355 -5.64029,0.105645 -14.78699,0.07153 -20.428,0.0027 -3.12136,-0.0381 -2.92806,-0.49529 -2.92806,-2.642859 0,-1.761304 0.57915,-2.345126 2.56065,-4.882723 3.04005,-3.893223 2.53139,-1.274628 2.53807,-26.275654 -0.26805,-23.194994 0.11621,-22.753964 -1.19092,-23.665854 -0.27329,-0.19065 -1.15563,-0.30063 -2.33629,-0.30063 -1.95049,0 -2.40113,-0.10745 -2.95867,0.49415 -0.33748,0.36416 -0.92338,1.525 -1.30199,2.57966 -0.37861,1.05465 -1.95127,5.48938 -3.49479,9.85495 -1.54353,4.365571 -3.80223,10.73534 -5.01934,14.155037 -1.21711,3.419696 -3.29067,9.253685 -4.60791,12.96442 -1.31724,3.710734 -2.61539,7.044442 -2.88477,7.40824 -0.91457,1.235112 -2.6335,2.332066 -4.14656,2.646178 -0.95268,0.197774 -3.76444,0.274428 -8.00908,0.218342 -7.32776,-0.09683 -8.00459,-0.244016 -9.79582,-2.130324 -0.99185,-1.044498 -1.4275,-2.180528 -7.866,-20.511551 -0.805,-2.291924 -1.8748,-5.298214 -2.37733,-6.680645 -0.50253,-1.382431 -1.52062,-4.239896 -2.26243,-6.349926 -3.73779,-10.631921 -4.90128,-13.666841 -5.4519,-14.221181 -0.51455,-0.51801 -0.86488,-0.47903 -2.69835,-0.47903 -2.54822,0 -2.8372,-0.0185 -3.41685,1.04026 -0.41549,0.7589 -0.45937,2.59991 -0.52698,22.114092 -0.051,14.710019 0.016,21.718783 0.21689,22.686256 0.22761,1.096383 0.74751,2.014515 2.39737,4.233672 1.1587,1.558524 2.28537,3.082177 2.36159,3.385899 0.0531,0.211759 0.35462,2.224501 0.23808,3.420717 -0.0529,0.542567 -0.92123,0.876883 -1.51127,0.870442 l -0.12712,-0.0014 -11.39423,-0.04088 c -10.76327,0 -11.7153,0.14296 -12.89514,-0.173172 -10e-6,-3e-6 -4e-5,-5e-6 -7e-5,-5e-6 z"
         id="path6140" />
      <path
         id="path6126"
         style="fill:#df202f;fill-opacity:1;stroke-width:0.26458"
         d="m -175.87956,-43.051611 c -2.82814,-0.0345 -5.49094,1.708774 -6.90285,4.790861 -1.41225,3.082834 -0.77172,7.414381 1.44124,9.747088 0.99536,1.049221 2.69848,2.003484 4.05862,2.27425 1.62182,0.322859 3.30769,0.082 4.90299,-0.700724 l 1.36941,-0.672301 0.91053,0.562749 c 0.54391,0.336159 1.35084,0.562748 2.00399,0.562748 h 1.09294 v -8.06969 -8.06969 h -1.08261 c -0.68211,3e-6 -1.33162,0.195797 -1.75542,0.52916 -0.87809,0.690708 -1.18824,0.669904 -2.95638,-0.198435 -1.01481,-0.498371 -2.05951,-0.743536 -3.08246,-0.756016 z m 0.54363,3.209583 a 4.8575234,5.4001193 0 0 1 4.85753,5.40012 4.8575234,5.4001193 0 0 1 -4.85753,5.40012 4.8575234,5.4001193 0 0 1 -4.85752,-5.40012 4.8575234,5.4001193 0 0 1 4.85752,-5.40012 z" />
      <path
         style="fill:#df202f;fill-opacity:1;stroke-width:0.26458"
         d="m -163.55315,-27.611387 c 0.009,-1.068805 0.23313,-1.384156 4.51815,-6.370814 2.77223,-3.226153 4.28469,-5.300691 4.19597,-5.531892 -0.11395,-0.296935 -0.66585,-0.195111 -3.25621,-0.195111 -2.87925,0 -3.30189,-0.117817 -3.95259,0.257862 -1.9572,1.12999 -1.51528,0.743928 -1.51528,-1.3229 v -1.85206 h 6.87908 6.87908 v 1.195645 c 0,1.633923 -0.15922,1.439215 -4.92227,6.741755 -3.11593,3.469057 -4.23329,4.829603 -4.1662,5.179817 0.0623,0.325377 0.83919,0.318809 3.52504,0.318809 3.15862,0 3.36625,0.02101 4.02091,-0.463015 1.59045,-1.175866 1.54252,-0.75603 1.54252,1.314309 v 2.09752 l -6.87908,-0.02584 -6.87908,0.01292 z"
         id="path6138" />
      <path
         style="fill:#df202f;fill-opacity:1;stroke-width:0.26458"
         d="m -194.77767,-26.817647 c 0.003,-0.181899 0.23871,-0.628378 0.52328,-0.992175 0.47687,-0.609656 0.51785,-1.112059 0.52327,-6.416065 l 0.006,-5.754615 h -1.87736 c -1.66427,0 -2.04271,0.117741 -2.644,0.545889 -0.42164,0.30024 -1.0692,0.508347 -1.21571,0.417798 -0.14652,-0.09055 -0.18453,-1.316805 -0.18417,-1.868793 l 0.10048,-1.704154 7.40824,-0.03654 h 7.40824 v 1.85206 c 0,2.007903 0.0702,2.338601 -1.26747,1.368973 -0.73761,-0.534652 -0.48998,-0.469213 -4.2462,-0.469213 -0.25526,0 -0.30709,1.802189 -0.30709,5.694674 0,5.104259 0.0736,5.647384 0.56424,6.271145 0.88661,1.535654 0.21876,1.298966 -2.15172,1.298966 -2.76189,0 -2.64424,0.03497 -2.63991,-0.20795 z"
         id="path6136" />
      <path
         style="fill:#df202f;fill-opacity:1;stroke-width:0.26458"
         d="m -208.24379,-25.803818 c -1.70314,0 -4.63206,-0.764357 -5.99469,-1.133162 -0.1572,-0.04255 -0.12399,-1.201316 -0.12399,-2.211361 0,-2.063438 -0.12989,-2.281738 1.59356,-1.302953 1.64925,0.936637 2.98968,1.571375 4.83564,1.577339 2.80355,0.009 4.26152,-1.097669 3.63095,-2.756194 -0.3411,-0.897167 -0.76813,-1.069437 -4.30266,-1.735763 -4.81823,-0.90833 -6.29055,-2.197467 -5.95093,-5.210538 0.16963,-1.504921 1.26615,-2.888209 2.99463,-3.777777 1.1681,-0.601168 1.59468,-0.802631 4.21018,-0.785193 1.6007,0.01066 2.98247,0.190116 4.03484,0.476571 l 0.99658,0.32152 0.009,1.841861 c 0.0103,2.081435 0.2394,2.373151 -1.47345,1.223479 -2.68509,-1.802246 -6.63577,-1.58162 -7.37317,0.411752 -0.53667,1.450751 0.61068,2.384848 3.51851,2.864547 5.0336,0.830387 6.76977,2.082575 6.76977,4.882615 0,4.518405 -4.26908,5.313257 -7.37491,5.313257 z"
         id="path6124" />
      <path
         id="path6690"
         style="fill:#df202f;fill-opacity:1;stroke-width:1.91486;stroke-linecap:round;stroke-linejoin:round;paint-order:stroke markers fill"
         d="m -225.59063,-43.045925 a 8.7848825,8.6298551 0 0 0 -8.78488,8.629856 8.7848825,8.6298551 0 0 0 8.78488,8.629854 8.7848825,8.6298551 0 0 0 8.78489,-8.629854 8.7848825,8.6298551 0 0 0 -8.78489,-8.629856 z m 0,3.147571 a 5.1159019,5.4824963 0 0 1 5.11591,5.482285 5.1159019,5.4824963 0 0 1 -5.11591,5.482283 5.1159019,5.4824963 0 0 1 -5.1159,-5.482283 5.1159019,5.4824963 0 0 1 5.1159,-5.482285 z" />
      <path
         id="path8678"
         style="fill:#df202f;fill-opacity:1;stroke-width:0.26458"
         d="m -140.14315,-43.051611 c -2.82814,-0.0345 -5.49094,1.708774 -6.90285,4.790861 -1.41225,3.082834 -0.77172,7.414381 1.44124,9.747088 0.99536,1.049221 2.69848,2.003484 4.05862,2.27425 1.62182,0.322859 3.30769,0.082 4.90299,-0.700724 l 1.36941,-0.6723 0.91053,0.562748 c 0.54391,0.33616 1.35084,0.562748 2.00399,0.562748 h 1.09294 v -8.06969 -8.06969 h -1.08261 c -0.68211,3e-6 -1.33162,0.195798 -1.75543,0.52916 -0.87809,0.690708 -1.18823,0.669904 -2.95637,-0.198435 -1.01481,-0.49837 -2.05951,-0.743535 -3.08246,-0.756016 z m 0.54363,3.209583 a 4.8575234,5.4001193 0 0 1 4.85753,5.40012 4.8575234,5.4001193 0 0 1 -4.85753,5.400121 4.8575234,5.4001193 0 0 1 -4.85752,-5.400121 4.8575234,5.4001193 0 0 1 4.85752,-5.40012 z" />
    </g>
  </g>
</svg>
