<svg xmlns="http://www.w3.org/2000/svg" data-name="Layer 1" viewBox="0 0 787.44 185.27" width="2500" height="588"><path d="M307.11 53.15c0 7.34-3.23 13.5-9.39 18.2-6.47 4.7-15 6.75-25.55 6.75-6.16 0-11.74-.29-16.44-1.46-4.4-1.18-8.81-2.65-12.92-4.12v-18.2h2.06a40.4 40.4 0 0 0 13.5 7.34 42.5 42.5 0 0 0 14.09 2.64 29 29 0 0 0 4.7-.29 46 46 0 0 0 4.7-.88 10.5 10.5 0 0 0 3.52-2.35c1.18-.88 1.47-2.35 1.47-4.11a5.68 5.68 0 0 0-2.05-4.41 13.5 13.5 0 0 0-6.17-2.64c-2.64-.59-5.58-1.17-8.81-1.76-2.93-.59-5.87-1.47-8.8-2.35-6.17-2.06-10.87-5-13.51-8.51a20.62 20.62 0 0 1-4.11-12.92c0-7 3.23-12.92 9.4-17.32S267.18.29 276.87.29a82.6 82.6 0 0 1 14.68 1.18 77.7 77.7 0 0 1 12.33 3.82v17h-1.76A50 50 0 0 0 291 16.15a42 42 0 0 0-13.5-2.35 26.3 26.3 0 0 0-4.7.3 23.7 23.7 0 0 0-4.4 1.17 10.6 10.6 0 0 0-3.53 2.35 6.18 6.18 0 0 0-1.47 3.82 5.72 5.72 0 0 0 2.35 4.7c1.47.87 4.4 1.76 8.52 2.64l7.93 1.76c2.64.59 5.28 1.46 8.21 2.35 5.58 1.76 10 4.4 12.63 7.63s4.11 7.34 4.11 12.63m46.69-5.29 9.39-26.71 9.1 26.71Zm20.8-46.39H352l-27.6 75.17h19.7l5.29-15.28h27.3L382 76.64h20Zm118.91 75.17h-18.8l-32-51.64v51.64h-17.61V1.47h23.19l27.31 43.16V1.47h17.91Zm49.91-.89a33.3 33.3 0 0 1-12-7.33 29.8 29.8 0 0 1-7.92-12.34 49.5 49.5 0 0 1-2.64-17 47.8 47.8 0 0 1 2.64-16.14 37.8 37.8 0 0 1 7.63-12.34c3.23-3.52 7.34-5.87 12-7.92A47 47 0 0 1 559 0a67 67 0 0 1 8.5.59 41.7 41.7 0 0 1 7.05 1.47 30 30 0 0 1 6.17 2.06c1.76.88 3.52 1.46 4.7 2.05v18.2h-2.06c-.88-.58-2-1.76-3.52-2.64a29.4 29.4 0 0 0-5-3.23 36 36 0 0 0-5.84-2.93 27 27 0 0 0-7-.89 22 22 0 0 0-7.64 1.18 19.1 19.1 0 0 0-6.75 4.41 19.1 19.1 0 0 0-5 7.33 34.3 34.3 0 0 0-1.76 11.75c0 4.69.58 8.51 2.06 11.74a17 17 0 0 0 5 7.34 18.1 18.1 0 0 0 6.75 4.11 34.2 34.2 0 0 0 7.63 1.18c9.48 0 15.42-4.54 21.43-10h1.77v17.92c-12.42 6.22-28.6 9.13-42 4.11m110.36-13.21a20.1 20.1 0 0 1-7 1.47 20.5 20.5 0 0 1-7.34-1.47 16.25 16.25 0 0 1-5.87-4.4 26.4 26.4 0 0 1-4.12-7.64A42.2 42.2 0 0 1 628 39.05a33.7 33.7 0 0 1 1.76-11.45 17.2 17.2 0 0 1 4.13-7.6 16.1 16.1 0 0 1 5.87-4.4 17.6 17.6 0 0 1 7-1.47 19.9 19.9 0 0 1 7 1.47 16.05 16.05 0 0 1 5.88 4.4 23.3 23.3 0 0 1 4.11 7.63c1.17 3.23 1.47 7 1.47 11.45a39.8 39.8 0 0 1-1.18 10.87 20.3 20.3 0 0 1-4.4 8.22 12.55 12.55 0 0 1-5.88 4.4m21.44-52c-7-7-16.44-10.57-28.48-10.57-12.33 0-21.72 3.53-28.48 10.57-7.05 7.05-10.28 16.44-10.28 28.48s3.23 21.44 10.28 28.48c6.76 7 16.15 10.57 28.48 10.57 12 0 21.43-3.52 28.48-10.57 6.75-7 10.28-16.44 10.28-28.48S682 17.62 675.29 10.57M754 29.36a8.66 8.66 0 0 1-3 3.53 10.56 10.56 0 0 1-5.29 2 54 54 0 0 1-7.92.59H732V15h7c2.35 0 4.41.29 6.17.29a9.9 9.9 0 0 1 4.4.88 9.65 9.65 0 0 1 4.11 3.23 9 9 0 0 1 1.18 5 11.6 11.6 0 0 1-.89 5m6.17 15c4.69-2.35 8.22-5 10.86-8.52s3.82-8.22 3.82-13.8a20.9 20.9 0 0 0-2.35-10 23.6 23.6 0 0 0-6.75-6.46 21.2 21.2 0 0 0-9.1-3.22 64.5 64.5 0 0 0-11.45-.89h-32.59v75.13H732V49h9.09l20.56 27.61h23.45Zm-453 116c0 7.34-3.23 13.21-9.39 17.92q-9.71 7-25.55 7a69 69 0 0 1-16.44-1.76 65.7 65.7 0 0 1-12.92-4.12v-17.9h2.06a46.5 46.5 0 0 0 13.5 7.34 41.7 41.7 0 0 0 14.09 2.34 29 29 0 0 0 4.7-.29 10.24 10.24 0 0 0 4.7-.88 10.5 10.5 0 0 0 3.52-2.35c1.18-.88 1.47-2.06 1.47-4.11a5.11 5.11 0 0 0-2.05-4.11 17.3 17.3 0 0 0-6.17-2.93c-2.64-.6-5.58-1.18-8.81-1.77-2.93-.58-5.87-1.47-8.8-2.35-6.17-2-10.87-4.69-13.51-7.93a21.43 21.43 0 0 1-4.11-13.2c0-7 3.23-12.63 9.4-17s14.38-6.76 24.07-6.76a83 83 0 0 1 14.68 1.47 56.3 56.3 0 0 1 12.33 3.52v17.33h-1.76a34.3 34.3 0 0 0-11.15-6.25 35.7 35.7 0 0 0-13.5-2.64c-1.47 0-2.94.29-4.7.29a27 27 0 0 0-4.4 1.47 7.55 7.55 0 0 0-3.53 2.35 6.1 6.1 0 0 0-1.47 3.52 5.69 5.69 0 0 0 2.35 4.7c1.47 1.17 4.4 2.06 8.52 2.93l7.93 1.77a47.6 47.6 0 0 1 8.21 2.05c5.58 2.06 10 4.4 12.63 7.64s4.11 7.33 4.11 12.62m67.53 23.49h-54.36v-74.87h54.32v14.39H339.7v12.91H372v14.39h-32.3v18.5h34.94Zm82.5-4.41a107 107 0 0 1-13.21 3.82 65.3 65.3 0 0 1-16.74 2.06c-12.62 0-22.89-3.53-29.95-10.57-7-6.76-10.56-16.44-10.56-28.48q0-17.62 10.56-28.19c7.35-7 17.62-10.86 30.54-10.86a71 71 0 0 1 14.1 1.47 66 66 0 0 1 15 5.28v17.62h-2.06c-1.17-.59-2.35-1.76-4.4-2.94-1.77-1.17-3.52-2.35-5-3.23a36.6 36.6 0 0 0-15.27-3.81 31.8 31.8 0 0 0-9.39 1.46 24 24 0 0 0-7.34 4.7 19.3 19.3 0 0 0-5 7.64 25.6 25.6 0 0 0-2 10.86c0 7.93 2.34 14.38 6.75 18.79s10.86 6.75 19.67 6.75a7.4 7.4 0 0 0 2.35-.29h2.35v-15h-15V142.4h34.64Zm83.09-22.89c0 9.09-2.64 16.44-8.22 21.43-5.87 4.7-14.09 7.34-25 7.34-11.15 0-19.38-2.64-24.95-7.34-5.87-5-8.52-12-8.52-21.43v-47.57H493v46.68c0 5 1.18 9.1 3.23 11.46 2.35 2.64 5.88 3.81 10.86 3.81q7.05 0 10.57-3.52c2.06-2.65 3.24-6.46 3.24-11.75v-46.68h19.37Zm59.6-19.68a15.5 15.5 0 0 1-2.93 3.53 14.2 14.2 0 0 1-5.29 2.05 60 60 0 0 1-7.63.29h-6.16v-20.25H591a15.7 15.7 0 0 1 4.4 1.17 6.7 6.7 0 0 1 4.11 3.23 8 8 0 0 1 1.18 4.7 13.1 13.1 0 0 1-.89 5.28m6.2 14.68c4.69-2.35 8.22-5 10.86-8.51s3.82-7.93 3.82-13.5c0-4.12-.59-7.34-2.35-10a18.67 18.67 0 0 0-6.75-6.75 33.3 33.3 0 0 0-9.11-3.23 67 67 0 0 0-11.44-.59h-32.6v74.88h19.39v-27.6h9.1l20.55 27.6H631Zm74.87 17.91a14.46 14.46 0 0 1-7 1.47 17.8 17.8 0 0 1-7.05-1.17 23.6 23.6 0 0 1-6.16-4.41 26.8 26.8 0 0 1-3.82-7.63 37.2 37.2 0 0 1 0-22.61 16.86 16.86 0 0 1 4.11-7.92 16.3 16.3 0 0 1 5.87-4.41 19.8 19.8 0 0 1 7.05-1.17 15.3 15.3 0 0 1 7 1.46 16.4 16.4 0 0 1 5.87 4.12 21.1 21.1 0 0 1 4.11 7.63 34.2 34.2 0 0 1 1.76 11.74 40.4 40.4 0 0 1-1.46 10.57A22.8 22.8 0 0 1 687 165a15 15 0 0 1-6.17 4.4m21.43-51.67c-7-7-16.45-10.57-28.48-10.57s-21.72 3.52-28.48 10.57-10.28 16.73-10.28 28.77c0 11.45 3.53 21.14 10.28 28.19s16.44 10.57 28.48 10.57 21.43-3.53 28.48-10.57c6.75-7 10.28-16.74 10.28-28.19 0-12-3.53-21.72-10.28-28.77m85.14 42.57c0 7.34-3.22 13.21-9.39 17.92q-9.69 7-25.54 7a69 69 0 0 1-16.44-1.76 65.6 65.6 0 0 1-12.93-4.12v-17.9h2.06a46.7 46.7 0 0 0 13.5 7.34 41.8 41.8 0 0 0 14.1 2.34 29 29 0 0 0 4.69-.29 10.2 10.2 0 0 0 4.7-.88 17 17 0 0 0 3.82-2.35c.88-.88 1.17-2.06 1.17-4.11a5.11 5.11 0 0 0-2-4.11c-1.17-1.17-3.23-2.05-5.87-2.93-2.94-.6-5.87-1.18-9.1-1.77-2.94-.58-5.88-1.47-8.81-2.35-6.17-2-10.87-4.69-13.51-7.93a21.43 21.43 0 0 1-4.11-13.2c0-7 3.24-12.63 9.4-17s14.39-6.76 24.07-6.76a80.5 80.5 0 0 1 14.69 1.47 64.8 64.8 0 0 1 12.62 3.52v17.33h-2a34.4 34.4 0 0 0-11.16-6.17 35.8 35.8 0 0 0-13.57-2.59c-1.47 0-2.93.29-4.69.29a27 27 0 0 0-4.41 1.47 7.47 7.47 0 0 0-3.52 2.35 6 6 0 0 0-1.47 3.52 5.71 5.71 0 0 0 2.34 4.7c1.48 1.17 4.41 2.06 8.52 2.93 2.93.59 5.29 1.18 7.93 1.77a47.7 47.7 0 0 1 8.22 2.05c5.58 2.06 10 4.4 12.62 7.64s4.11 7.33 4.11 12.62M183.51 83.39c.29 3.23.29 6.46.29 9.69A91.86 91.86 0 0 1 91.9 185c-44.63 0-82.21-32.3-89.84-74.58h64.3l24.07 55.49 26.13-62.24H.88A69.6 69.6 0 0 1 0 93.08C0 42 41.11.59 91.9.59a91.81 91.81 0 0 1 90.43 75.46H114.8L90.73 20.27 64.59 82.8h118.62Z" fill="#a4206b"/></svg>