<svg height="297mm" viewBox="30.116 58.478 157.213 95.682" width="210mm" xmlns="http://www.w3.org/2000/svg" xmlns:xlink="http://www.w3.org/1999/xlink"><linearGradient id="a" gradientUnits="userSpaceOnUse" x1="137.546" x2="137.546" y1="69.774" y2="61.374"><stop offset="0" stop-color="#fff"/><stop offset="1" stop-color="#eed600"/></linearGradient><g fill-rule="evenodd" transform="matrix(2.5989 0 0 2.5989 -241.715 -56.074)"><ellipse cx="133.398" cy="79.935" fill="#00004f" rx="38.411" ry="15.11"/><ellipse cx="133.349" cy="79.946" fill="#d40000" rx="36.278" ry="14.441"/><path d="m113.52 79.689h4.408v5.896h-4.408z" fill="#fff"/><path d="m106.652 77.723h53.426v5.883h-53.426z" fill="#fff"/><path d="m137.559 58.489c-1.002.005-3.59.655-5.21 1.09l.001.003a4.631 4.631 0 0 0 -3.412 4.458c0 .544.1 1.064.273 1.55-.046 1.65.722 3.215 2.048 4.114a4.237 4.237 0 0 0 4.597.123c1.135-.687 1.907-1.854 2.155-3.175.402-.264.771-.508.917-.612 1.234-.885 2.442-2.024 2.442-3.674 0-2.196-1.615-3.888-3.811-3.877zm-7.734 8.262a4.619 4.619 0 0 0 3.738 1.914c1.042 0 2-.35 2.774-.934l.012.002 1.054-.683c-.304.982-.939 1.828-1.804 2.352a3.726 3.726 0 0 1 -4.06-.11c-.868-.588-1.472-1.505-1.714-2.541z" fill="#00004f"/></g><path d="m133.663 60.15a3.882 3.882 0 0 0 -3.882 3.881 3.882 3.882 0 0 0 1.732 3.23c-.943 4.314 1.153 4.088 1.144 6.031-.005.96-1.112 2.67-1.87 3.064l6.525-.07s.306-1.732.033-2.53c-.602-1.756-3.027-2.551-3.474-4.353-.098-.4.012-.999.15-1.51a3.882 3.882 0 0 0 3.525-3.862 3.882 3.882 0 0 0 -3.883-3.882z" fill="url(#a)" transform="matrix(2.5989 0 0 2.5989 -241.715 -56.074)"/><path d="m30.116 138.87h11.457v15.29h-11.457z" fill="#fff" fill-rule="evenodd"/><g transform="matrix(2.5993 0 0 2.5985 -302.705 -198.224)"><path d="m131.798 130.911q-.81-.593-1.647-.593-1.683 0-1.683 1.27 0 .538.894 1.285l1.054.893q.488.42.677.615.188.188.398.53.21.342.314.691.105.35.105.712 0 1.403-1.054 2.192-1.048.789-2.723.789-1.375 0-2.597-.593l.587-1.794q.935.705 2.17.705.748 0 1.236-.315.496-.32.496-.907 0-.58-.894-1.277l-1.096-.873q-.502-.405-.684-.586-.174-.182-.37-.503-.195-.328-.293-.67-.098-.342-.098-.705 0-1.41.936-2.234.935-.824 2.45-.824.503 0 1.284.119.782.112 1.096.258zm2.142-1.668q0-.468.328-.775.335-.314.81-.314.467 0 .802.314.336.307.336.775 0 .46-.336.775-.335.314-.802.314-.468 0-.803-.307-.335-.315-.335-.782zm.516 9.877h-1.773l1.131-6.073h-.956l.293-1.403h2.702zm7.835 0h-1.808l.817-4.356q.098-.523.098-.88 0-.928-1.096-.928-.936 0-1.683.79l-.998 5.374h-1.752l1.054-5.605q.028-.147.028-.405 0-.621-.203-1.326l1.71-.314.161.837q.922-.802 2.31-.802 2.304 0 2.304 2.157 0 .383-.097.907zm6.604-6.073h-2.059l-.754 3.316q-.09.398-.09.663 0 .768.865.768.384 0 1.257-.363v1.57q-.754.259-2.053.259-.851 0-1.368-.53-.516-.531-.516-1.383 0-.279.062-.551l.845-3.749h-.866l.3-1.403h.866l.293-1.529 1.997-.726-.524 2.255h2.046zm1.945 2.827q-.014.182-.014.315 0 .781.46 1.2.468.419 1.292.419.44 0 1.012-.237.572-.245.9-.545l-.202 1.836q-.887.398-2.164.398-1.382 0-2.24-.873-.86-.872-.86-2.394 0-1.927 1.236-3.204 1.243-1.284 3.246-1.284 1.18 0 1.913.502.733.496.733 1.424 0 1.264-1.096 1.983-1.09.719-2.688.719-.782 0-1.528-.259zm.335-1.319q.453.133.984.133.95 0 1.605-.287.657-.293.657-.837 0-.608-1.327-.608-.523 0-1.068.461-.544.454-.851 1.138zm6.747 4.363-.657 3.647h-1.746l1.607-8.61c.056-.298.084-.598.084-.9 0-.41-.042-.822-.125-1.236l1.703-.308c.065.177.119.415.16.713.647-.48 1.29-.72 1.927-.72 1.997 0 2.995.968 2.995 2.904 0 1.42-.41 2.583-1.229 3.49-.819.908-1.9 1.362-3.246 1.362a3.192 3.192 0 0 1 -1.473-.342zm.272-1.487c.229.237.566.356 1.013.356.916 0 1.617-.277 2.1-.83.49-.56.734-1.35.734-2.374 0-.475-.147-.854-.44-1.138-.293-.288-.696-.433-1.208-.433-.228 0-.498.077-.81.23-.307.15-.537.315-.69.496zm9.166 1.103q-.41.656-1.249.656-.628 0-.99-.412-.364-.412-.364-1.068 0-.851.335-2.45l1.403-6.68h1.732l-1.438 6.96q-.308 1.486-.308 2.121 0 .405.252.643.251.23.628.23zm7.153-2.094q-.049.258-.049.572 0 1.536.238 2.108h-1.09q-.488 0-.725-.747-.894.887-2.227.887-1.215 0-1.885-.684-.663-.684-.663-1.906 0-2.129 1.284-3.644 1.292-1.521 3.253-1.521 1.892 0 2.73.349zm-2.017-3.511q-1.173 0-1.871 1.123-.698 1.117-.698 2.576 0 1.208 1.187 1.208.753 0 1.312-.928.565-.929 1.005-3.84-.495-.14-.935-.14zm8.336.761q-.837-.734-1.535-.734-.433 0-.754.203-.315.195-.315.53 0 .412.754.796.761.384 1.166.615.405.223.663.614.259.384.259.886 0 1.236-.929 1.948-.921.712-2.36.712-1.228 0-2.4-.691l.92-1.585q.873.824 1.711.824.53 0 .873-.265.349-.266.349-.72 0-.376-.656-.718-.657-.342-1.16-.622-.502-.286-.767-.69-.258-.412-.258-.908 0-1.09.865-1.731.873-.65 2.136-.65.866 0 2.248.587zm6.197-.643h-2.06l-.753 3.316q-.091.398-.091.663 0 .768.866.768.383 0 1.256-.363v1.57q-.754.259-2.052.259-.852 0-1.368-.53-.517-.531-.517-1.383 0-.279.063-.551l.844-3.749h-.865l.3-1.403h.866l.293-1.529 1.996-.726-.523 2.255h2.045z" fill="#000080" stroke="#fff" stroke-width="2.367"/><path d="m131.798 130.911q-.81-.593-1.647-.593-1.683 0-1.683 1.27 0 .538.894 1.285l1.054.893q.488.42.677.615.188.188.398.53.21.342.314.691.105.35.105.712 0 1.403-1.054 2.192-1.048.789-2.723.789-1.375 0-2.597-.593l.587-1.794q.935.705 2.17.705.748 0 1.236-.315.496-.32.496-.907 0-.58-.894-1.277l-1.096-.873q-.502-.405-.684-.586-.174-.182-.37-.503-.195-.328-.293-.67-.098-.342-.098-.705 0-1.41.936-2.234.935-.824 2.45-.824.503 0 1.284.119.782.112 1.096.258zm2.142-1.668q0-.468.328-.775.335-.314.81-.314.467 0 .802.314.336.307.336.775 0 .46-.336.775-.335.314-.802.314-.468 0-.803-.307-.335-.315-.335-.782zm.516 9.877h-1.773l1.131-6.073h-.956l.293-1.403h2.702zm7.835 0h-1.808l.817-4.356q.098-.523.098-.88 0-.928-1.096-.928-.936 0-1.683.79l-.998 5.374h-1.752l1.054-5.605q.028-.147.028-.405 0-.621-.203-1.326l1.71-.314.161.837q.922-.802 2.31-.802 2.304 0 2.304 2.157 0 .383-.097.907zm6.604-6.073h-2.059l-.754 3.316q-.09.398-.09.663 0 .768.865.768.384 0 1.257-.363v1.57q-.754.259-2.053.259-.851 0-1.368-.53-.516-.531-.516-1.383 0-.279.062-.551l.845-3.749h-.866l.3-1.403h.866l.293-1.529 1.997-.726-.524 2.255h2.046zm1.945 2.827q-.014.182-.014.315 0 .781.46 1.2.468.419 1.292.419.44 0 1.012-.237.572-.245.9-.545l-.202 1.836q-.887.398-2.164.398-1.382 0-2.24-.873-.86-.872-.86-2.394 0-1.927 1.236-3.204 1.243-1.284 3.246-1.284 1.18 0 1.913.502.733.496.733 1.424 0 1.264-1.096 1.983-1.09.719-2.688.719-.782 0-1.528-.259zm.335-1.319q.453.133.984.133.95 0 1.605-.287.657-.293.657-.837 0-.608-1.327-.608-.523 0-1.068.461-.544.454-.851 1.138zm6.747 4.363-.657 3.647h-1.746l1.607-8.61c.056-.298.084-.598.084-.9 0-.41-.042-.822-.125-1.236l1.703-.308c.065.177.119.415.16.713.647-.48 1.29-.72 1.927-.72 1.997 0 2.995.968 2.995 2.904 0 1.42-.41 2.583-1.229 3.49-.819.908-1.9 1.362-3.246 1.362a3.192 3.192 0 0 1 -1.473-.342zm.272-1.487c.229.237.566.356 1.013.356.916 0 1.617-.277 2.1-.83.49-.56.734-1.35.734-2.374 0-.475-.147-.854-.44-1.138-.293-.288-.696-.433-1.208-.433-.228 0-.498.077-.81.23-.307.15-.537.315-.69.496zm9.166 1.103q-.41.656-1.249.656-.628 0-.99-.412-.364-.412-.364-1.068 0-.851.335-2.45l1.403-6.68h1.732l-1.438 6.96q-.308 1.486-.308 2.121 0 .405.252.643.251.23.628.23zm7.153-2.094q-.049.258-.049.572 0 1.536.238 2.108h-1.09q-.488 0-.725-.747-.894.887-2.227.887-1.215 0-1.885-.684-.663-.684-.663-1.906 0-2.129 1.284-3.644 1.292-1.521 3.253-1.521 1.892 0 2.73.349zm-2.017-3.511q-1.173 0-1.871 1.123-.698 1.117-.698 2.576 0 1.208 1.187 1.208.753 0 1.312-.928.565-.929 1.005-3.84-.495-.14-.935-.14zm8.336.761q-.837-.734-1.535-.734-.433 0-.754.203-.315.195-.315.53 0 .412.754.796.761.384 1.166.615.405.223.663.614.259.384.259.886 0 1.236-.929 1.948-.921.712-2.36.712-1.228 0-2.4-.691l.92-1.585q.873.824 1.711.824.53 0 .873-.265.349-.266.349-.72 0-.376-.656-.718-.657-.342-1.16-.622-.502-.286-.767-.69-.258-.412-.258-.908 0-1.09.865-1.731.873-.65 2.136-.65.866 0 2.248.587zm6.197-.643h-2.06l-.753 3.316q-.091.398-.091.663 0 .768.866.768.383 0 1.256-.363v1.57q-.754.259-2.052.259-.852 0-1.368-.53-.517-.531-.517-1.383 0-.279.063-.551l.844-3.749h-.865l.3-1.403h.866l.293-1.529 1.996-.726-.523 2.255h2.045z" fill="#00004f" stroke="#00004f" stroke-width=".267"/></g></svg>